<svg id="Layer_1" data-name="Layer 1" xmlns="http://www.w3.org/2000/svg" viewBox="0 0 400 400"><defs><style>.cls-1,.cls-3{fill:#231f20;}.cls-1{stroke:#231f20;stroke-miterlimit:10;stroke-width:20px;}.cls-2{fill:#fff;}.cls-4{fill:#f7941d;}.cls-5{fill:#fbb040;}</style></defs><path class="cls-1" d="M288.19,113.5h0c-27.09,11.78-43.27,15.52-50.81,19.79-4.42,2.49-5.86,5.18-4.8,9.78.7,3,3.67,13.35,7.85,28.61C259.32,240.56,302.22,408.22,267,433H83.41c26.33-33.46,51.8-79.63,42.2-180C115.1,143.08,22.41,80,108.4,43.68,172.65,16.55,218.86,83,227.88,82.86H229c92.4-1.68,185.92-38,106.9,6.72l29.64-2.19C395,85.25,289.53,113.14,288.19,113.5Z"/><path class="cls-2" d="M240.44,171.68c-4.18-15.26-7.2-25.66-7.85-28.61-1.08-4.6.36-7.29,4.8-9.78a38.62,38.62,0,0,0-5.07-10.18C215,98.76,221.61,87.69,228.94,82.83h-1.1c-9,.14-55.2-66.31-119.47-39.18C22.33,80,115,143.07,125.55,253c9.6,100.38-15.87,146.55-42.2,180H267C302.22,408.22,259.32,240.56,240.44,171.68ZM176.28,99.39a6,6,0,1,1,6-6A6,6,0,0,1,176.28,99.39Z"/><circle class="cls-2" cx="176.28" cy="93.36" r="5.98"/><circle class="cls-3" cx="176.28" cy="93.36" r="5.98"/><path class="cls-4" d="M288.19,113.5a511.25,511.25,0,0,0,47.63-24l29.7-2.11C395,85.25,289.53,113.14,288.19,113.5Z"/><path class="cls-3" d="M335.82,89.55a513.72,513.72,0,0,1-47.63,24Z"/><path class="cls-5" d="M335.82,89.55a513.72,513.72,0,0,1-47.63,24h0c-27.09,11.78-43.27,15.51-50.81,19.79a38.35,38.35,0,0,0-5.08-10.18C215,98.81,221.6,87.74,228.93,82.88,321.33,81.15,414.84,44.8,335.82,89.55Z"/></svg>